<svg id="Capa_1" enable-background="new 0 0 512 512" height="512" viewBox="0 0 512 512" width="512" xmlns="http://www.w3.org/2000/svg"><path d="m295.992 497c0 8.284 6.716 15 15 15s15-6.716 15-15v-231h-30z"/><path d="m449.881 80 21.602-34.717c4.145-6.661-.645-15.283-8.49-15.283h-137v-15c0-8.284-6.716-15-15-15s-15 6.716-15 15v131h30v-16h137c7.845 0 12.635-8.622 8.49-15.283z"/><circle cx="128.992" cy="95" r="50"/><path d="m78.992 176c-22.091 0-40 17.909-40 40v265.376c0 16.347 12.816 30.164 29.157 30.612.281.008.563.012.843.012 16.569 0 30-13.431 30-30v-99h60v98.376c0 16.347 12.816 30.164 29.157 30.612.281.008.563.012.843.012 16.569 0 30-13.431 30-30v-246h112.005c16.569 0 30-13.431 30-30 0-16.568-13.431-30-30-30z"/></svg>