<svg height="512pt" viewBox="-39 0 512 512" width="512pt" xmlns="http://www.w3.org/2000/svg"><path d="m427.546875 123.933594c-1.136719-1.144532-116.585937-116.585938-118.136719-118.136719-3.714844-3.679687-8.785156-5.796875-14.074218-5.796875h-275.335938c-11.046875 0-20 8.953125-20 20v472c0 11.046875 8.953125 20 20 20h393.332031c11.046875 0 20-8.953125 20-20v-354c.003907-5.191406-2.035156-10.277344-5.785156-14.066406zm-112.210937-55.648438 49.714843 49.714844h-49.714843zm-275.335938 403.714844v-432h235.332031v98c0 11.046875 8.953125 20 20 20h98v314zm314.667969-216c0 11.046875-8.953125 20-20 20h-236c-11.046875 0-20-8.953125-20-20s8.953125-20 20-20h236c11.046875 0 20 8.953125 20 20zm-276-157.332031c0-11.046875 8.953125-20 20-20h78.667969c11.042968 0 20 8.953125 20 20s-8.957032 20-20 20h-78.667969c-11.046875 0-20-8.957031-20-20zm276 275.332031c0 11.046875-8.953125 20-20 20h-236c-11.046875 0-20-8.953125-20-20s8.953125-20 20-20h236c11.046875 0 20 8.953125 20 20zm0 0"/></svg>